<svg xmlns="http://www.w3.org/2000/svg" width="102.933" height="29.935" viewBox="0 0 102.933 29.935">
  <g id="logo_de_drie_gezusters" transform="translate(0 -1.1)">
    <path id="Path_14" data-name="Path 14" d="M49.668,23.485a1.941,1.941,0,0,0,.557-3.032l-.065-.074a3.585,3.585,0,0,1-.712-1.1,4.241,4.241,0,0,1-.233-1.325.538.538,0,0,1,.168-.309c.337-.324.427-.5.414-.677a.689.689,0,0,0-.246-.486.514.514,0,0,0-.5-.1.782.782,0,0,1-.7-.206c.4,0,1.23-.339,1.23-.9a.666.666,0,0,0-.259-.53c-.039-.029-.1-.088-.142-.118-.57-.412-1.333-.751-.544-1.531l.013-.015a3.758,3.758,0,0,0,.285-.28,1.035,1.035,0,0,0,.207-.28,1.746,1.746,0,0,0,.1-.294,1.1,1.1,0,0,0-.168-.883A2.212,2.212,0,0,0,48.3,10.9c-1.967-.574-2.718-.986-3.262-2.546.013,0,.026-.015.039-.029a2.373,2.373,0,0,0,.79-1.074c.091-.191-.039-.1-.078-.059a2.21,2.21,0,0,1-.945.707c-.026,0-.026-.015-.039-.029-.194-.53-.181-2.134-.375-2.738A7.561,7.561,0,0,0,43.6,3.2a11.918,11.918,0,0,0-1.01-1.178,7.811,7.811,0,0,0-.919-.824H36a9.426,9.426,0,0,1,2.886,2.134,9.794,9.794,0,0,1,.88,1.178,6.9,6.9,0,0,1,.673,1.869c.142.574.065,2.164.207,2.679a1.132,1.132,0,0,0,.531-.309c.337-.383.492-.6.492-.5a1.666,1.666,0,0,1-.155.427,1.849,1.849,0,0,1-.57.662,1.281,1.281,0,0,1-.129.1l.026.044c.66,1.5,1.048,1.663,3.21,2.723a.838.838,0,0,1,.4.53.775.775,0,0,1-.1.648c-.246.412-.3.265-.6.633-.388.5.039,1.236.479,1.56a1.6,1.6,0,0,0,.168.162.694.694,0,0,1,.207.53c-.039.53-1.01.677-1.45.53a2.185,2.185,0,0,0,.945.5.937.937,0,0,1,.5.132.45.45,0,0,1,.194.4c.052.294-.142.574-.427.942-.026.029-.039.059-.065.088-.155.177-.065.868.026,1.119a3.442,3.442,0,0,0,.608,1.089.317.317,0,0,0,.052.074,1.806,1.806,0,0,1-.7,2.8,12.2,12.2,0,0,1-2.77.927c-.5.118-.958.206-1.281.265-.828.147-3.016.294-.194,5.976h5.4c-3.093-5.49-.854-5.814,0-6.035.337-.088.8-.221,1.333-.383a12.982,12.982,0,0,0,2.886-1.207Z" transform="translate(-31.34 -0.087)" fill="#fff"/>
    <path id="Path_15" data-name="Path 15" d="M4.768,1.2H3.238A3.251,3.251,0,0,0,0,4.453V27.884a3.255,3.255,0,0,0,2.988,3.238H4.474a31.449,31.449,0,0,1,.957-4.5c.029-.1.059-.221.088-.339A10.465,10.465,0,0,0,3.738,17.6c-1.192-1.6-1.619-2.576.6-5.946C7.2,7.323,5.313,2.422,4.768,1.2Zm21.87,0H17.352c.206.132.633.412.839.559a8.079,8.079,0,0,1,.839.692,10,10,0,0,1,1.089,1.133,6.348,6.348,0,0,1,1.015,1.9c.191.633.633,2.9.765,3.488L21.914,9a3.136,3.136,0,0,0,1.045-.913c.309-.5.206.545-.589,1.163a1.9,1.9,0,0,0-.235.25,4.327,4.327,0,0,0,3.311,2.355h.015a3.8,3.8,0,0,0,.383.118,1.33,1.33,0,0,1,.309.118c.015,0,.029.015.044.015a.845.845,0,0,1,.324.28.833.833,0,0,1,.118.368,1.024,1.024,0,0,1-.074.471,1.479,1.479,0,0,1-.235.353,2.564,2.564,0,0,0-.177.206l-.015.015h.015a1.18,1.18,0,0,0,.177,1.648.447.447,0,0,0,.1.074.645.645,0,0,1,.294.574c-.029.574-1.074.706-1.516.721a2.27,2.27,0,0,0,.927.25,1.021,1.021,0,0,1,.574.177.692.692,0,0,1,.309.471,1.542,1.542,0,0,1-.412,1.177c-.029.029-.044.059-.074.088a1.181,1.181,0,0,0-.015,1.045,3.414,3.414,0,0,0,.765,1.148.39.39,0,0,0,.074.088,1.849,1.849,0,0,1-.78,3.032,17.531,17.531,0,0,1-3.356,1.089c-.618.147-1.163.25-1.56.324-.957.162-3.385.368-.662,5.416h5.9a3.255,3.255,0,0,0,2.988-3.238V4.453A3.273,3.273,0,0,0,26.638,1.2ZM81.564,17.773a.936.936,0,0,0-.28.662l.029,11.745a.952.952,0,0,0,.957.942h5.3V29.238H83.227l-.015-3.856h4.342V23.5H83.2l-.015-4.106h4.386V17.508H82.226A.887.887,0,0,0,81.564,17.773Zm-39.8,0a.971.971,0,0,0-.28.677L41.5,30.165a.955.955,0,0,0,.957.957h5.284v-1.9H43.416L43.4,25.382h4.342v-1.9H43.4l-.015-4.077h4.371v-1.9H42.43A.866.866,0,0,0,41.768,17.773Zm-2.752-.25-4.665-.015a1,1,0,0,0-.677.28.971.971,0,0,0-.28.677v11.7a.955.955,0,0,0,.957.957H39a.955.955,0,0,0,.957-.957v-5.74A.955.955,0,0,0,39,23.469H36.676v1.9h1.383v3.841H35.292V19.392l2.767.015v2.237h1.9V18.464A.949.949,0,0,0,39.016,17.523Zm15.453-.029H48.891v1.9h4.327L48.935,29.3a.847.847,0,0,0-.074.383v.486a.955.955,0,0,0,.957.957h5.607v-1.9H51.054l4.3-9.935a.847.847,0,0,0,.074-.383V18.45a.971.971,0,0,0-.28-.677A.945.945,0,0,0,54.469,17.493Zm48.464,4.062v-2a2.07,2.07,0,0,0-2.075-2.061H98.636a2.07,2.07,0,0,0-2.075,2.061v2.914a2.331,2.331,0,0,0,1.192,2.1,4.5,4.5,0,0,0,1.987.486c.456.015.868.044,1.222.088a.361.361,0,0,1,.059.221v3.68a.181.181,0,0,1-.162.191H98.636a.181.181,0,0,1-.162-.191V27H96.561v2.046a2.07,2.07,0,0,0,2.075,2.061h2.222a2.07,2.07,0,0,0,2.075-2.061v-3.68a2.036,2.036,0,0,0-1.634-2.075,11.146,11.146,0,0,0-1.516-.118,2.511,2.511,0,0,1-1.119-.25.575.575,0,0,1-.191-.456V19.554a.181.181,0,0,1,.162-.191h2.222a.181.181,0,0,1,.162.191v2h1.913ZM69.319,17.493H67.1a2.07,2.07,0,0,0-2.075,2.061v2.914a2.331,2.331,0,0,0,1.192,2.1,4.5,4.5,0,0,0,1.987.486c.456.015.868.044,1.222.088a.361.361,0,0,1,.059.221v3.68a.181.181,0,0,1-.162.191H67.1a.181.181,0,0,1-.162-.191V27H65.021v2.046A2.07,2.07,0,0,0,67.1,31.107h2.222a2.07,2.07,0,0,0,2.075-2.061v-3.68a2.036,2.036,0,0,0-1.634-2.075,11.144,11.144,0,0,0-1.516-.118,2.511,2.511,0,0,1-1.119-.25.575.575,0,0,1-.191-.456V19.554a.181.181,0,0,1,.162-.191h2.222a.181.181,0,0,1,.162.191v2h1.913v-2A2.089,2.089,0,0,0,69.319,17.493Zm2.988,1.884h3.061V31.122h1.913V19.377H80.21V17.493h-7.9Zm-10.685,8.89a.955.955,0,0,1-.957.957l-.986-.015a.957.957,0,0,1-.839-.957V17.493h-1.9V29a2.085,2.085,0,0,0,2.075,2.09l2.414.029h.029a2.085,2.085,0,0,0,2.09-2.09V17.493h-1.9V28.267ZM93.308,17.493l-3.665.029a.939.939,0,0,0-.942.942V31.122h1.9v-5.7h1.869l1.06,5.7h1.884l-1.06-5.99a2.293,2.293,0,0,0,1.089-1.9V19.495a1.883,1.883,0,0,0-.589-1.369A2.158,2.158,0,0,0,93.308,17.493Zm.235,5.093a.955.955,0,0,1-.957.957H90.6V19.406l1.972-.015a.955.955,0,0,1,.957.957v2.237Zm-47.213-8.9H41.68l-.015-4.96H46.33V7.573H41.665L41.65,2.348h4.695V1.2H41.091a.569.569,0,0,0-.4.162.578.578,0,0,0-.162.412l.029,12.481a.562.562,0,0,0,.559.574h5.21V13.681Zm21.458,1.148h5.181V13.681H68.347l-.015-4.96h4.636V7.573H68.333V2.348H73V1.2H67.773a.569.569,0,0,0-.4.162.578.578,0,0,0-.162.412l.029,12.481A.55.55,0,0,0,67.788,14.829ZM64.447,1.2h1.119V14.829H64.447ZM58,8.692h2.59l1.06,6.123h1.1L61.7,8.559A2.152,2.152,0,0,0,62.784,6.69V2.848A1.57,1.57,0,0,0,62.3,1.715a1.735,1.735,0,0,0-1.236-.5h.015l-3.591.029a.559.559,0,0,0-.559.559v13.04h1.119L58,8.692Zm.044-6.344,2.693-.015a.949.949,0,0,1,.942.942V6.513a1.013,1.013,0,0,1-.927,1.016H58.031ZM36.308,14.829a2.626,2.626,0,0,0,2.62-2.62V3.82a2.626,2.626,0,0,0-2.62-2.62H34.041l-.662.015V14.167l.015.648h2.914ZM34.659,2.48h1.648A1.344,1.344,0,0,1,37.647,3.82v8.389a1.344,1.344,0,0,1-1.339,1.339H34.659ZM52.7,14.829a2.626,2.626,0,0,0,2.62-2.62V3.82A2.626,2.626,0,0,0,52.7,1.2H50.436l-.662.015V14.167l.015.648H52.7ZM51.054,2.48H52.7A1.344,1.344,0,0,1,54.042,3.82v8.389A1.344,1.344,0,0,1,52.7,13.549H51.054Z" transform="translate(0 -0.087)" fill="#fff"/>
    <g id="Group_33" data-name="Group 33" transform="translate(80.101 1.1)">
      <path id="Path_16" data-name="Path 16" d="M523.841,3.249a1.091,1.091,0,0,0,.349-.052,1.444,1.444,0,0,0,.324-.142V2.446l.233-.052-.026-.168h-.7L524,2.394l.233.052V3c-.052.013-.091.026-.142.039a.63.63,0,0,1-.155.013.616.616,0,0,1-.44-.181.638.638,0,0,1-.181-.5V2.174a1.79,1.79,0,0,1,.039-.388,1.291,1.291,0,0,1,.116-.337.778.778,0,0,1,.207-.1.835.835,0,0,1,.259-.039.8.8,0,0,1,.181.013c.065.013.116.013.155.026l.129.3.155-.039-.026-.414a1.258,1.258,0,0,0-.259-.065,2.312,2.312,0,0,0-.3-.026.851.851,0,0,0-.7.311,1.451,1.451,0,0,0-.246.88V2.42a.782.782,0,0,0,.22.6A.743.743,0,0,0,523.841,3.249Zm4.582-.181.026.155h.7l.026-.155-.233-.052V2.3h.285l.518.919h.375l.026-.155-.22-.052-.427-.751.013-.026a.576.576,0,0,0,.246-.22.612.612,0,0,0,.091-.349.428.428,0,0,0-.168-.388.752.752,0,0,0-.479-.129h-.751l-.026.155.233.052V3.016Zm.518-1.721h.155a.536.536,0,0,1,.35.1.361.361,0,0,1,.116.285.63.63,0,0,1-.013.155c-.013.052-.013.1-.026.155a1.078,1.078,0,0,1-.194.052.98.98,0,0,1-.194.013h-.194Zm4.97,1.864.026-.155-.194-.039.142-.427h.751l.142.427-.194.039.026.155h.582l.026-.155-.168-.039-.66-1.877h-.233l-.673,1.877-.168.039.026.155Zm.349-1.683h.013l.3.867h-.608l.3-.867Zm4.3,1.54.026.142h.621l.026-.142L539,3.016V1.359h.026l1,1.851h.44V1.346l.233-.052-.026-.142h-.621l-.039.142.246.052V3h-.026l-1.009-1.851h-.634l-.026.142.233.052v1.67Zm5.436,0,.026.155h.854a.792.792,0,0,0,.66-.285,1.169,1.169,0,0,0,.233-.764V2.045a.873.873,0,0,0-.233-.66.949.949,0,0,0-.7-.233h-.829l-.026.155.246.039V3Zm.518-1.721h.272a.621.621,0,0,1,.518.207.835.835,0,0,1,.181.57v.142a1.2,1.2,0,0,1-.065.375.927.927,0,0,1-.155.3,1.072,1.072,0,0,1-.194.052,1.254,1.254,0,0,1-.22.013h-.324V1.346Zm-20.645,6.8a1.014,1.014,0,0,0,.337-.052,1.139,1.139,0,0,0,.311-.142V7.792a1.319,1.319,0,0,1-.272.116,1.173,1.173,0,0,1-.3.039.644.644,0,0,1-.479-.181.686.686,0,0,1-.181-.5V7.054a1.985,1.985,0,0,1,.039-.388,1.149,1.149,0,0,1,.1-.337,1.037,1.037,0,0,1,.207-.1.814.814,0,0,1,.246-.039.978.978,0,0,1,.194.013c.065.013.1.013.143.026l.129.3.155-.039-.026-.414a1.51,1.51,0,0,0-.259-.065,2.311,2.311,0,0,0-.3-.026.836.836,0,0,0-.686.3,1.4,1.4,0,0,0-.233.88v.129a.844.844,0,0,0,.22.621.814.814,0,0,0,.647.233Zm4.53-.026.026-.155-.194-.039.142-.427h.751l.142.427-.194.039.026.155h.582l.026-.155-.168-.039-.66-1.877h-.233l-.673,1.877-.168.039.026.155Zm.349-1.7h.013l.3.867h-.608Zm4.284,1.54.026.155h.764l.039-.155-.311-.052V7.132h.492l.052.181.143-.026V6.769l-.143-.026-.052.194h-.492v-.7h.6l.129.3.155-.039-.039-.453h-1.333l-.026.155.233.052V7.908ZM539.14,5.5V5.4l-.3-.013-.453.427v.052l.181.013ZM537.833,7.96l.026.155h1.476l.039-.466-.168-.026-.116.285h-.738V7.132h.544l.052.181.155-.026V6.769l-.155-.026-.052.194h-.544v-.7h.686l.129.3.155-.039-.039-.453h-1.424l-.026.155.233.052V7.908Zm5.889.078a.554.554,0,0,0,.22.078,1.938,1.938,0,0,0,.285.026,1.146,1.146,0,0,0,.375-.052.9.9,0,0,0,.3-.129,1.206,1.206,0,0,0,.259.129.833.833,0,0,0,.246.052.533.533,0,0,0,.155-.013.6.6,0,0,0,.117-.039c.039-.013.065-.039.1-.052V7.9c-.026.013-.065.013-.091.026a.253.253,0,0,1-.1.013c-.039,0-.078.013-.129.013a.4.4,0,0,1-.168-.039,1.422,1.422,0,0,1-.194-.1.7.7,0,0,0,.142-.233.579.579,0,0,0,.052-.259V7.028l-.466.039-.026.155.233.052v.039a1.009,1.009,0,0,1-.026.194.672.672,0,0,1-.078.168,3.031,3.031,0,0,1-.3-.285c-.09-.1-.194-.207-.272-.311a2.028,2.028,0,0,0,.246-.155,1.1,1.1,0,0,0,.181-.142.947.947,0,0,0,.117-.142.361.361,0,0,0,.039-.168V6.433a.659.659,0,0,0-.026-.168.461.461,0,0,0-.091-.129.3.3,0,0,0-.155-.078,1.026,1.026,0,0,0-.22-.026.947.947,0,0,0-.285.039.49.49,0,0,0-.375.492v.052a.533.533,0,0,0,.065.207,1.248,1.248,0,0,0,.168.259,1.2,1.2,0,0,0-.168.1.853.853,0,0,0-.246.311.473.473,0,0,0-.039.194.379.379,0,0,0,.052.207c-.013.052.039.1.1.142Zm.324-1.553a.191.191,0,0,1,.013-.091c.013-.026.013-.052.026-.078l.039-.078a.56.56,0,0,1,.065-.013c.026,0,.039-.013.065-.013h.09a.358.358,0,0,1,.116.013.208.208,0,0,1,.091.052.231.231,0,0,1,.065.091.378.378,0,0,1,.026.116V6.51a.209.209,0,0,1-.039.116.348.348,0,0,1-.091.1,1.111,1.111,0,0,1-.129.1,1.915,1.915,0,0,1-.168.1l-.078-.116a.384.384,0,0,1-.052-.1.238.238,0,0,1-.026-.091c0-.039-.013-.065-.013-.1V6.484Zm-.22,1.126a.358.358,0,0,1,.013-.116.261.261,0,0,1,.052-.1.3.3,0,0,1,.091-.091,1.126,1.126,0,0,1,.129-.091c.1.116.207.233.311.337s.207.207.311.3a.867.867,0,0,1-.22.091.838.838,0,0,1-.259.026.756.756,0,0,1-.168-.026.3.3,0,0,1-.13-.065.35.35,0,0,1-.091-.1.218.218,0,0,1-.039-.129V7.611ZM523.246,11.2h.466v1.67l-.233.052.026.142h.7l.026-.142L524,12.865V11.2h.466l.091.259.155-.013-.026-.44h-1.657l-.013.44.142.013Zm4.038,1.721.039.142H528.8l.039-.453-.168-.039-.116.3h-.738v-.79h.544l.052.194.155-.039v-.5l-.155-.026-.052.181h-.544V11.2h.686l.129.3.155-.039L528.747,11h-1.424l-.039.142.233.052v1.67Zm5.359-.8.013-.026a.575.575,0,0,0,.246-.22.612.612,0,0,0,.091-.349.428.428,0,0,0-.168-.388.752.752,0,0,0-.479-.129h-.751l-.026.155.233.052v1.657l-.233.052.026.155h.7l.026-.155-.233-.052v-.712h.285l.518.919h.375l.026-.155-.22-.052Zm-.375-.168h-.194V11.2h.155a.535.535,0,0,1,.349.1.361.361,0,0,1,.117.285.63.63,0,0,1-.013.155c-.013.052-.013.1-.026.155a1.082,1.082,0,0,1-.194.052h-.194Zm3.572.971.026.155h.7l.026-.155-.233-.052v-.712h.285l.518.919h.375l.026-.155-.22-.052-.427-.751.013-.026a.575.575,0,0,0,.246-.22.613.613,0,0,0,.091-.349.429.429,0,0,0-.168-.388.753.753,0,0,0-.479-.129h-.751l-.026.155.233.052v1.657Zm.531-1.721h.155a.536.536,0,0,1,.349.1.362.362,0,0,1,.117.285.627.627,0,0,1-.013.155c-.013.052-.013.1-.026.155a1.073,1.073,0,0,1-.194.052.98.98,0,0,1-.194.013h-.194Zm4.219,1.721-.194-.039.142-.427h.751l.142.427-.194.039.026.155h.582l.026-.155-.168-.039L541.043,11h-.233l-.634,1.864-.168.039.026.155h.531Zm.324-1.54h.013l.3.867h-.608ZM545.5,12.84a.861.861,0,0,1-.194.039,1.185,1.185,0,0,1-.22.013.58.58,0,0,1-.155-.013c-.052-.013-.09-.013-.13-.026l-.129-.3-.181.039.026.4a.955.955,0,0,0,.246.065,2.543,2.543,0,0,0,.336.026.86.86,0,0,0,.531-.155.484.484,0,0,0,.194-.4.429.429,0,0,0-.129-.324,2.62,2.62,0,0,0-.414-.311,4.708,4.708,0,0,1-.4-.272.27.27,0,0,1-.091-.194.255.255,0,0,1,.013-.1.189.189,0,0,1,.026-.091c.052-.013.1-.026.168-.039a1.184,1.184,0,0,1,.22-.013.4.4,0,0,1,.129.013.462.462,0,0,1,.13.026l.129.3.156-.039-.026-.414a1.24,1.24,0,0,0-.5-.078.92.92,0,0,0-.531.142.432.432,0,0,0-.194.362.406.406,0,0,0,.091.272,1.582,1.582,0,0,0,.479.349,2.137,2.137,0,0,1,.388.285.3.3,0,0,1,.091.207.627.627,0,0,1-.013.155.093.093,0,0,0-.039.078Z" transform="translate(-523 -1.1)" fill="#fff"/>
    </g>
  </g>
</svg>
